PathFileType	4	(X/Y/Z)	S01_0011_Gait_markers.trc
DataRate	CameraRate	NumFrames	NumMarkers	Units	OrigDataRate	OrigDataStartFrame	OrigNumFrames
250.000000	250.000000	4	54	mm	250.000000	179	359
Frame#	Time	HEAD_ANT			R_HEAD			L_HEAD			C7			R_BACK			L_BACK			STERNUM			R_ACROMION			R_HUM_PROX			R_HUM_ANT			R_HUM_POST			R_ELBOW_LAT			R_ELBOW_MED			R_FOREARM			R_WIRST_LAT			R_WRITS_MED			R_HAND			L_ACROMION			L_HUM_PROX			L_HUM_ANT			L_HUM_POST			L_ELBOW_LAT			L_ELBOW_MED			L_FOREARM			L_WRIST_LAT			L_WIRST_MED			L_HAND			R_ILIAC			SACRUM			L_ILIAC			R_GTROCH			R_THIGH__1			R_THIGH_2			R_THIGH_3			R_THIGH_4			R_SHANK_1			R_SHANK_2			R_SHANK_3			R_SHANK_4			R_HEEL			R_FOOT_LAT			R_FOOT_MED			L_GTROCH			L_THIGH_1			L_THIGH_2			L_THIGH_3			L_THIGH_4			L_SHANK_1			L_SHANK_2			L_SHANK_3			L_SHANK_4			L_HEEL			L_FOOT_LAT			L_FOOT_MED			
		X1	Y1	Z1	X2	Y2	Z2	X3	Y3	Z3	X4	Y4	Z4	X5	Y5	Z5	X6	Y6	Z6	X7	Y7	Z7	X8	Y8	Z8	X9	Y9	Z9	X10	Y10	Z10	X11	Y11	Z11	X12	Y12	Z12	X13	Y13	Z13	X14	Y14	Z14	X15	Y15	Z15	X16	Y16	Z16	X17	Y17	Z17	X18	Y18	Z18	X19	Y19	Z19	X20	Y20	Z20	X21	Y21	Z21	X22	Y22	Z22	X23	Y23	Z23	X24	Y24	Z24	X25	Y25	Z25	X26	Y26	Z26	X27	Y27	Z27	X28	Y28	Z28	X29	Y29	Z29	X30	Y30	Z30	X31	Y31	Z31	X32	Y32	Z32	X33	Y33	Z33	X34	Y34	Z34	X35	Y35	Z35	X36	Y36	Z36	X37	Y37	Z37	X38	Y38	Z38	X39	Y39	Z39	X40	Y40	Z40	X41	Y41	Z41	X42	Y42	Z42	X43	Y43	Z43	X44	Y44	Z44	X45	Y45	Z45	X46	Y46	Z46	X47	Y47	Z47	X48	Y48	Z48	X49	Y49	Z49	X50	Y50	Z50	X51	Y51	Z51	X52	Y52	Z52	X53	Y53	Z53	X54	Y54	Z54	

180	0.716	1111.530151367188	1705.962768554688	-303.764251708984	1053.525146484375	1653.785278320312	-226.9127655029293	1052.6005859375	1658.378295898438	-374.3557434082028	915.14208984375	1485.729736328125	-301.4374694824215	843.1342163085938	1292.619384765625	-228.2581787109372	837.1923217773438	1292.1591796875	-362.3171386718747	1092.481811523438	1321.360229492188	-310.2331542968747	1002.431396484375	1436.656860351562	-134.8165740966794	987.5156860351562	1276.582641601562	-44.53984832763643	1055.428100585938	1196.181518554688	-56.78221130371067	938.5975341796875	1188.49462890625	-21.87522506713841	995.0135498046875	1084.6015625	-29.36950302123999	956.6325073242188	1078.088012695312	-103.7735214233396	1132.148315429688	928.6376342773438	-64.79894256591776	1174.558471679688	877.5758056640625	-118.3789215087889	1125.422607421875	835.2466430664062	-68.42761993408185	1212.838989257812	791.9661254882812	-76.79456329345686	982.0894775390625	1439.76171875	-473.3593749999997	934.1371459960938	1273.806640625	-561.405822753906	986.408935546875	1186.687866210938	-567.128479003906	862.4859008789062	1202.477416992188	-576.9008789062498	911.7401733398438	1091.392211914063	-587.7665405273435	863.5908813476562	1092.483276367188	-525.8566894531248	992.0396728515625	904.3847656250001	-584.0155029296873	1022.787109375	840.3009643554689	-535.6308593749998	966.8316650390625	824.9765014648439	-591.965881347656	1033.302856445312	756.3116455078126	-582.6509399414061	985.0067138671875	1035.658081054688	-127.5815277099607	862.6959228515625	1009.79541015625	-304.5849304199216	987.8121948242188	1032.279296875	-475.0752868652341	918.7186889648438	902.3492431640625	-119.2064971923826	878.5074462890625	633.4338989257812	-143.8482360839842	936.88525390625	632.7553100585938	-137.1474609374999	912.7966918945312	533.1595458984375	-170.8121337890624	852.9700927734375	557.5057983398438	-165.1444702148436	720.962890625	376.4248046875001	-162.753677368164	753.0679321289062	327.5067138671876	-178.0037384033202	699.4234619140625	262.2372436523438	-197.1759185791015	652.0382080078125	303.5292968750001	-187.2357025146484	497.9957885742188	166.6365509033204	-268.2605895996093	600.186767578125	27.36369895935063	-205.7696990966797	656.7940063476562	29.99557495117194	-302.0062255859375	974.0488891601562	921.3364257812501	-483.5109252929685	1156.300659179688	676.7022094726564	-453.8704223632811	1101.551879882812	674.1163940429689	-476.5473632812498	1121.219116210938	574.6203613281251	-441.033233642578	1178.434204101562	600.7555541992189	-424.2113037109374	1227.537963867188	335.2468566894532	-423.1457214355468	1177.557739257812	300.6751708984376	-428.7241210937499	1194.656127929688	216.2337493896485	-412.3139953613281	1253.68994140625	237.737030029297	-400.2343749999999	1187.424560546875	36.56148529052742	-342.6011047363281	1367.03125	26.72402763366708	-400.8596801757812	1397.9892578125	44.54764556884773	-304.8819274902344	
181	0.72	1117.53955078125	1706.423217773438	-304.5961914062496	1059.561767578125	1654.265380859375	-227.8029479980465	1058.792602539062	1658.977783203125	-375.3671874999997	921.5858764648438	1486.28466796875	-302.2174072265622	849.4741821289062	1292.77783203125	-229.2660217285153	843.4862060546875	1292.628540039062	-363.0682067871091	1098.856323242188	1321.823608398438	-311.0445251464841	1008.596069335938	1436.911499023438	-135.334060668945	993.2791137695312	1276.93896484375	-45.41608810424776	1061.132080078125	1196.447143554688	-57.06965637207005	944.175537109375	1188.933471679688	-22.74265480041478	1000.495483398438	1084.937133789062	-30.06633949279761	962.6952514648438	1078.315185546875	-104.3678207397459	1136.967895507812	928.0578002929688	-64.58290100097635	1179.259033203125	876.6014404296875	-117.8953018188475	1129.716918945312	835.0792846679688	-68.16393280029278	1217.130981445312	790.9972534179688	-76.23901367187483	988.5070190429688	1439.998779296875	-474.057464599609	940.6751708984375	1273.705322265625	-561.985656738281	993.0652465820312	1186.712890625	-567.605285644531	869.1431274414062	1202.513305664063	-577.242248535156	911.9835205078125	1092.885986328125	-587.783752441406	870.3562622070312	1092.336181640625	-526.2879638671873	998.8004760742188	904.2756958007814	-584.1315307617185	1029.425903320312	840.1806030273439	-535.5777587890623	973.4540405273438	824.8068237304689	-592.0478515624998	1039.917236328125	756.1254272460939	-582.5409545898436	991.95703125	1035.352416992188	-128.049865722656	869.4462280273438	1010.151977539063	-304.5920104980466	994.4371337890625	1032.726318359375	-475.5160217285154	925.7191162109375	901.76025390625	-119.6223907470701	887.1287841796875	632.5206298828125	-144.0319976806639	945.486572265625	632.2264404296875	-137.2288818359374	921.9192504882812	532.2970581054688	-170.463409423828	861.9341430664062	556.4588012695312	-165.0865936279296	728.563232421875	377.2812805175782	-162.3016662597655	760.0390625	327.9421081542969	-177.3673400878905	705.7333374023438	263.3364562988282	-195.9650268554687	658.8900146484375	305.6143798828126	-186.1175231933593	503.5620422363281	171.1090393066407	-267.0399475097656	601.3856201171875	28.36995697021489	-205.7178039550781	656.9664916992188	30.03182792663581	-302.0671691894531	981.133056640625	922.8129272460939	-483.7685546874998	1163.660522460938	678.4399414062501	-452.3754577636717	1108.966186523438	675.7521362304689	-475.6413574218748	1129.150390625	575.7628173828126	-441.1972351074218	1186.246704101562	602.1112670898439	-424.055694580078	1233.830932617188	335.2650756835939	-422.9034729003906	1183.363403320312	301.550506591797	-429.7521972656249	1198.361694335938	216.5899810791016	-413.3232727050781	1257.6884765625	237.3629913330079	-400.0368041992187	1187.942993164062	37.09918975830086	-342.8603820800781	1367.734375	24.9757728576661	-400.9537658691406	1397.885986328125	41.11202239990241	-304.0831604003906	
182	0.724	1123.4755859375	1706.904174804688	-305.5469970703121	1065.734619140625	1654.76025390625	-228.7433319091793	1064.8330078125	1659.462036132812	-376.3473510742184	928.0557250976562	1486.82373046875	-302.9981994628903	855.8770141601562	1292.845336914062	-229.9497985839841	849.7364501953125	1292.88623046875	-363.959045410156	1105.286987304688	1322.283081054688	-311.7334289550778	1014.936889648438	1437.428466796875	-135.9739074707028	999.0665283203125	1277.350830078125	-46.03881454467745	1066.862548828125	1196.76220703125	-57.36746978759739	949.6694946289062	1189.48486328125	-23.74373817443821	1005.997680664062	1085.296997070312	-30.80049133300757	968.368408203125	1078.695922851562	-105.278999328613	1141.679443359375	927.480712890625	-64.47789001464824	1183.835083007812	875.7653198242188	-117.4721221923826	1133.841186523438	834.6911010742188	-67.76698303222638	1220.951538085938	790.1098022460938	-75.53522491455061	994.8355102539062	1440.2333984375	-475.017913818359	947.2220458984375	1273.81103515625	-562.4832763671873	999.7833862304688	1186.913818359375	-568.065979003906	875.802001953125	1202.485107421875	-577.5543212890623	924.987060546875	1091.275512695313	-588.0397338867185	877.1532592773438	1092.2646484375	-526.5888061523435	1005.570434570312	904.1551513671876	-584.1647949218748	1036.09423828125	840.2921142578126	-535.670959472656	980.2083740234375	824.7331542968751	-591.9685058593748	1046.643920898438	756.0351562500001	-582.4542236328124	998.9315185546875	1035.342895507812	-128.437789916992	875.7152709960938	1010.532104492188	-305.174377441406	1000.675537109375	1033.35498046875	-476.0986022949216	932.7716674804688	901.1470336914062	-119.9420928955076	895.8145751953125	631.7781372070312	-144.2670593261717	954.1614990234375	631.62548828125	-137.0471801757811	931.2182006835938	531.60986328125	-170.0173187255858	871.1788330078125	555.4041137695312	-165.0016784667968	736.4523315429688	378.5163269042969	-161.6718749999999	767.26806640625	328.6334838867188	-176.5398712158202	712.1527099609375	264.4905395507813	-195.2388763427734	665.8527221679688	307.6853332519532	-185.1263275146484	509.6391906738281	175.6476440429688	-266.0799255371093	602.5520629882812	29.28061103820805	-205.6875305175781	657.125	30.09827613830573	-302.1446838378906	987.9810791015625	924.1591796875001	-484.0049133300779	1171.80517578125	679.7636718750001	-452.576934814453	1117.313842773438	677.0357666015626	-476.0175170898436	1137.313842773438	577.1209106445314	-441.6756896972655	1194.103881835938	603.5141601562501	-423.772003173828	1239.209228515625	335.0550842285157	-422.5955505371093	1188.556518554688	302.0921630859376	-430.5100097656249	1202.122314453125	217.0055541992188	-414.0565185546874	1261.36962890625	236.6981811523438	-399.4337768554687	1188.489990234375	37.63407135009773	-343.2475891113281	1368.599731445312	24.17567062377939	-401.7098388671875	1398.08544921875	38.29204559326178	-302.984375	
183	0.728	1129.548583984375	1707.538452148438	-306.4301452636715	1071.7294921875	1655.23486328125	-229.5544738769528	1071.03857421875	1659.914794921875	-377.1645812988278	934.47607421875	1487.404541015625	-303.8204650878903	862.22509765625	1293.09033203125	-230.7503814697263	855.9685668945312	1293.1025390625	-364.688049316406	1111.701416015625	1322.841918945312	-312.2231140136716	1021.181884765625	1437.951782226562	-136.5452728271481	1004.892272949219	1277.830078125	-46.83237457275362	1072.558837890625	1197.084228515625	-57.71405029296849	955.1951293945312	1189.926025390625	-24.63807296752903	1011.462158203125	1085.714477539062	-31.32071304321265	973.9766235351562	1079.2607421875	-106.0027923583982	1146.2978515625	927.1785888671875	-64.39484405517558	1188.503662109375	875.1891479492188	-116.8914642333982	1137.868408203125	834.2479248046875	-67.31398773193341	1224.678100585938	789.1761474609375	-74.76851654052717	1001.314758300781	1440.339111328125	-475.6340026855465	953.7553100585938	1273.983642578125	-562.9241943359373	1006.528381347656	1187.20166015625	-568.535949707031	882.46728515625	1202.504760742188	-577.9289550781248	931.7943725585938	1091.396728515625	-588.5755615234373	883.9583740234375	1092.230102539063	-526.6500854492185	1012.368774414062	904.2238769531251	-584.2355957031248	1042.8330078125	840.3971557617189	-535.5548095703123	986.8675537109375	824.8899536132814	-591.9870605468748	1053.401000976562	756.1740722656251	-582.5106201171874	1006.409362792969	1035.41357421875	-128.9430999755857	882.7530517578125	1010.731323242188	-304.5682373046873	1007.004150390625	1034.24365234375	-476.5433349609373	939.9027709960938	900.504638671875	-120.2022781372068	904.5451049804688	630.951416015625	-144.3859710693358	962.837158203125	631.2625732421875	-137.108673095703	940.6820678710938	530.8231201171875	-169.2715301513671	880.4102783203125	554.2182006835938	-164.9445648193358	744.4776611328125	379.6776428222657	-161.1358642578124	774.7119140625	329.4666442871094	-175.3083038330077	718.7808227539062	265.6327514648438	-194.0678100585937	673.107666015625	309.9449768066407	-183.1363983154296	516.2653198242188	180.3703765869141	-265.3822937011718	603.6744384765625	30.1852245330811	-205.7345733642578	657.2064819335938	30.23655509948737	-302.1217956542969	994.8679809570312	925.7409057617189	-484.177795410156	1179.409423828125	681.1617431640626	-452.2553710937498	1125.2373046875	678.4162597656251	-476.3608093261717	1145.83203125	578.2739257812501	-442.113800048828	1201.344360351562	605.6928710937501	-424.4198913574218	1244.635498046875	334.6277160644532	-421.9236145019531	1193.960693359375	302.3998107910157	-431.2633361816406	1205.676635742188	217.2104949951173	-414.3266296386718	1264.929321289062	236.0188140869141	-398.9494628906249	1189.130615234375	38.11902999877938	-343.144287109375	1369.011962890625	23.70671272277841	-402.3735046386719	1398.507568359375	35.91881179809577	-301.61474609375	
